<?xml version="1.0" encoding="utf-8"?>
<!-- Generator: Adobe Illustrator 19.0.1, SVG Export Plug-In . SVG Version: 6.00 Build 0)  -->
<svg version="1.1" id="Слой_1" xmlns="http://www.w3.org/2000/svg" xmlns:xlink="http://www.w3.org/1999/xlink" x="0px" y="0px"
	 viewBox="56.4 -19.8 121.6 88.3" style="enable-background:new 56.4 -19.8 121.6 88.3;" xml:space="preserve">
<style type="text/css">
	.st0{enable-background:new    ;}
	.st1{fill:#809DB6;}
</style>
<g id="_x23_013a6c80" class="st0">
	<path class="st1" d="M159-17.9c2.2,0.1,4.1-1.1,6-1.9c-0.6,3.8-3,7.8-7.2,8.2c-10.1,0.4-20.3-0.1-30.4,0.2c0.2,0.4,0.7,1.3,0.9,1.8
		c10,0.3,20.1-0.2,30.2,0.2c-1.4,2.9-4.2,5.3-7.5,5.3c-6.4,0.3-12.9,0-19.3,0.1c0,0.5,0.1,1.4,0.1,1.8c7,0,14.1-0.1,21.1,0.1
		c-1.5,2.5-3.7,5.1-6.9,5c-6,0.3-12,0-17.9,0.1c0,0.5-0.1,1.4-0.1,1.9c11.7,0.1,23.3-0.1,35,0.1c2.7-0.3,5.3,2.1,5,4.8
		c0.1,4.9,0,9.9,0,14.8c8.7-3.9,12,10,5.5,14c-2.9,2.5-6.9-0.8-7.6-3.7c-0.7-8.8,0.3-17.8-0.5-26.6c-2.2-1.9-5.6-0.7-8.3-1
		c0.1,4.2,0.1,8.5,0,12.7c0.8,0.7,1.5,1.4,2.3,2.2c0.7,6.3,0,12.5-4.5,17.3c-6.5,0-12.9,0.1-19.4-0.1c3-4.5,7.9-7.1,13.3-7
		c0.7-1.3,1.4-2.7,2.1-4.1c-4.8-0.5-10.1,1-14.6-1c-3.1-3.4-4.3-8.1-6.5-12c-4.7,1.2-8.4,4.6-12.6,6.9c-9.2,5.8-18.8,11-27.8,17.3
		c-6,0.1-12,0.1-18,0c1.8-5.8,7.8-9.2,13.6-9.2c9-7.7,18-15.5,27.1-23.2c4.2-3,2.2-8.9,2.7-13.3c0.1-4-1.1-10.4,4.2-11.6
		C132.4-18.1,145.7-17.6,159-17.9z"/>
	<path class="st1" d="M77.1-12c0-3.8,4.1-6.9,7.7-5.4c5.7,2.8,12.2,0.5,18.1,1.7c3.9,1.4,4.2,6.3,3.1,9.7c-1.4,3.1-5.1,3-7.9,3.5
		c2,1.2,4.3,1.7,6.6,2C101.6,5.2,94.3,2.6,89,3.1c-4.9,0.6-6.4-4.7-5.9-8.6C80-6.2,76.8-8.6,77.1-12 M89.2-11.2
		c0.7,2.5,5,2.7,5.3-0.2C92.7-11.4,91-11.3,89.2-11.2z"/>
	<path class="st1" d="M75.3-8.3c1.3,1.3,2.6,2.6,3.8,4c-3.3,10.4-0.6,22.2,6.7,30.4c-1.2,1-2.5,2.1-3.7,3.1
		C73,19.1,70.5,4.2,75.3-8.3z"/>
	<path class="st1" d="M87.2,24.7c-7-7.7-9.4-19.1-6.1-29c0,3.5,1.1,6.9,4.1,8.9c0.2,6,2.3,11.8,6.3,16.3
		C90.1,22.2,88.7,23.5,87.2,24.7z"/>
	<path class="st1" d="M87.2,5.1c1.9,0,3.8,0,5.6,0c0.4,4,1.9,7.8,4.5,10.9c-1.4,1.3-2.9,2.6-4.3,3.8C89.6,15.6,87.3,10.5,87.2,5.1z"
		/>
	<path class="st1" d="M94.8,5.1c1.9,0,3.8,0,5.6-0.1c0.6,2.1,1.4,4.1,2.6,6c-1.4,1.2-2.8,2.5-4.2,3.7C96.4,12.1,95.1,8.7,94.8,5.1z"
		/>
	<path class="st1" d="M102.3,5.1c2.5,0,5,0,7.5,0c-1.8,1.6-3.6,3.2-5.5,4.7C103.6,8.3,102.9,6.7,102.3,5.1z"/>
	<path class="st1" d="M57.4,17.7c2.8-5.2,8.9-4.2,13.9-4c1.4,5.3,3.7,10.2,6.9,14.7c-3-1.7-6.1-3.4-9.1-5.1c-1.1,6.4-9.2,6.4-11.7,1
		C57.5,22,57.5,19.9,57.4,17.7z"/>
	<path class="st1" d="M115.1,26.3c4.3-2.8,8.6-5.5,12.9-8.3c1.3,3.5,2.7,6.9,4.1,10.3c-2.1,3.8-4.4,7.5-6.5,11.3
		c-6.4-0.1-12.8,0-19.2-0.1c2.2-4.9,7.8-6.9,12.8-7.1C117.9,30.4,116.5,28.3,115.1,26.3z"/>
	<path class="st1" d="M56.4,41.4c40.5,0,81,0,121.5,0c0,0.7,0,2.2,0,2.9c-40.5,0.1-81.1,0-121.6,0C56.4,43.4,56.4,42.4,56.4,41.4z"
		/>
	<path class="st1" d="M56.4,65.4c40.5,0,81,0,121.6,0c0,0.8,0,2.3,0,3.1c-40.5,0-81,0-121.5,0C56.4,67.8,56.4,66.2,56.4,65.4z"/>
</g>
<g id="_x23_0278d7ff">
	<path class="st1" d="M56.6,53c4.2-8.7,17.3-10.2,23.7-3.2c3.2,3.4,2.4,9.4-1.3,12.1C72,67,60.2,65.5,56.5,57.1
		C56.5,55.8,56.5,54.4,56.6,53 M66.4,51.5c-1.8,1-2.8,3.2-2,5.2c1.8,4.3,9.5,3.9,10.5-0.8C75.6,51.5,69.6,49.3,66.4,51.5z"/>
	<path class="st1" d="M86.7,46.2c2.5,0,5.1,0,7.6,0c1.2,3.1,2.5,6.2,3.7,9.3c1.3-3.1,2.5-6.2,3.8-9.3c2.5,0,5.1,0,7.6,0
		c1,6,2.1,12.1,3.2,18.1c-2.3,0-4.6,0-6.9,0c-0.5-3.1-1-6.2-1.5-9.2c-1.4,3.1-2.8,6.2-4.3,9.3c-1.3,0-2.5,0-3.8,0
		c-1.4-3.1-2.8-6.2-4.2-9.3c-0.6,3.1-1.1,6.2-1.5,9.3c-2.3,0-4.7,0-7,0C84.5,58.3,85.6,52.2,86.7,46.2z"/>
	<path class="st1" d="M116.4,46.2c2.5,0,5.1,0,7.6,0c1.2,3.1,2.4,6.1,3.8,9.2c1.2-3.1,2.5-6.1,3.8-9.2c2.5,0,5.1,0,7.6,0
		c1.1,6,2.1,12.1,3.2,18.1c-2.3,0-4.7,0-7,0c-0.5-3.1-0.9-6.2-1.3-9.3c-1.5,3.1-3,6.2-4.5,9.3c-0.9,0-2.8,0-3.7,0
		c-1.4-3.1-2.8-6.2-4.3-9.2c-0.5,3.1-1,6.2-1.5,9.2c-2.3,0-4.6,0-6.9,0C114.2,58.2,115.3,52.2,116.4,46.2z"/>
	<path class="st1" d="M144.5,46.2c4.8,0,9.5,0,14.3,0c0,1.5,0,3,0,4.5c-2.4,0-4.9,0-7.3,0c0,0.6,0,1.8,0,2.4c2.3,0,4.5,0,6.8,0
		c0,1.4,0,2.8,0,4.2c-2.3,0-4.5,0-6.8,0c0,0.6,0,1.9,0,2.5c2.4,0,4.9,0,7.3,0c0,1.5,0,3,0,4.5c-4.8,0-9.5,0-14.3,0
		C144.5,58.2,144.6,52.2,144.5,46.2z"/>
	<path class="st1" d="M160.5,46.2c5.7,0,11.4,0,17.1,0c0,1.5,0,3.1,0,4.6c-1.8,0-3.5,0-5.2,0c0,4.5,0,9,0,13.5c-2.3,0-4.7,0-7,0
		c0-4.5,0-9,0-13.5c-1.6,0-3.3,0-4.9-0.1C160.5,49.2,160.5,47.7,160.5,46.2z"/>
</g>
</svg>
